<svg class="border shadow-md" viewBox="0 0 857.3155555555555 482.24" xmlns="http://www.w3.org/2000/svg" preserveAspectRatio="none" style="width: 100%; height: 800.24px;"><rect class="bg" id="bg" x="0" y="0" width="857.3155555555555" height="482.24" fill="#000000"></rect><path d="M 0 -53.58222222222222 L 0 -53.58
                L 40.82 -23.58
                L 122.47365079365079 -53.58 L 122.47365079365079 -53.58
                L 178.47 -26.79
                L 244.94730158730158 -53.58 L 244.94730158730158 -53.58
                L 285.77 -14.58
                L 367.4209523809524 -53.58 L 367.4209523809524 -53.58
                L 408.25 -26.79
                L 489.89460317460316 -53.58 L 489.89460317460316 -53.58
                L 530.72 -7.58
                L 612.368253968254 -53.58 L 612.368253968254 -53.58
                L 675.37 -26.79
                L 734.8419047619047 -53.58 L 734.8419047619047 -53.58
                L 786.84 -16.58
                L 857.3155555555555 -53.58 L 857.3155555555555 -53.58
                L 898.14 -3.58
                L 979.7892063492063 -53.58  V 482.24 H 0 V -53.58 Z" fill="#FFF600"></path><path d="M 0 0 L 0 0.00
                L 40.82 26.79
                L 122.47365079365079 0.00 L 122.47365079365079 0.00
                L 164.47 26.79
                L 244.94730158730158 0.00 L 244.94730158730158 0.00
                L 285.77 36.00
                L 367.4209523809524 0.00 L 367.4209523809524 0.00
                L 408.25 26.79
                L 489.89460317460316 0.00 L 489.89460317460316 0.00
                L 530.72 26.79
                L 612.368253968254 0.00 L 612.368253968254 0.00
                L 653.37 28.00
                L 734.8419047619047 0.00 L 734.8419047619047 0.00
                L 812.84 29.00
                L 857.3155555555555 0.00 L 857.3155555555555 0.00
                L 898.14 26.79
                L 979.7892063492063 0.00  V 482.24 H 0 V 0.00 Z" fill="#ffe100"></path><path d="M 0 53.58222222222222 L 0 53.58
                L 40.82 80.37
                L 122.47365079365079 53.58 L 122.47365079365079 53.58
                L 163.30 83.58
                L 244.94730158730158 53.58 L 244.94730158730158 53.58
                L 295.95 80.37
                L 367.4209523809524 53.58 L 367.4209523809524 53.58
                L 433.42 86.58
                L 489.89460317460316 53.58 L 489.89460317460316 53.58
                L 530.72 80.37
                L 612.368253968254 53.58 L 612.368253968254 53.58
                L 695.37 80.37
                L 734.8419047619047 53.58 L 734.8419047619047 53.58
                L 775.67 80.37
                L 857.3155555555555 53.58 L 857.3155555555555 53.58
                L 898.14 83.58
                L 979.7892063492063 53.58  V 482.24 H 0 V 53.58 Z" fill="#ffcc00"></path><path d="M 0 107.16444444444444 L 0 107.16
                L 40.82 154.16
                L 122.47365079365079 107.16 L 122.47365079365079 107.16
                L 176.47 133.96
                L 244.94730158730158 107.16 L 244.94730158730158 107.16
                L 291.95 133.96
                L 367.4209523809524 107.16 L 367.4209523809524 107.16
                L 408.25 146.16
                L 489.89460317460316 107.16 L 489.89460317460316 107.16
                L 530.72 133.96
                L 612.368253968254 107.16 L 612.368253968254 107.16
                L 689.37 133.96
                L 734.8419047619047 107.16 L 734.8419047619047 107.16
                L 796.84 143.16
                L 857.3155555555555 107.16 L 857.3155555555555 107.16
                L 898.14 138.16
                L 979.7892063492063 107.16  V 482.24 H 0 V 107.16 Z" fill="#ffb700"></path><path d="M 0 160.74666666666667 L 0 160.75
                L 40.82 187.54
                L 122.47365079365079 160.75 L 122.47365079365079 160.75
                L 163.30 187.54
                L 244.94730158730158 160.75 L 244.94730158730158 160.75
                L 285.77 187.54
                L 367.4209523809524 160.75 L 367.4209523809524 160.75
                L 454.42 201.75
                L 489.89460317460316 160.75 L 489.89460317460316 160.75
                L 571.89 192.75
                L 612.368253968254 160.75 L 612.368253968254 160.75
                L 653.19 187.54
                L 734.8419047619047 160.75 L 734.8419047619047 160.75
                L 775.67 187.54
                L 857.3155555555555 160.75 L 857.3155555555555 160.75
                L 935.32 187.54
                L 979.7892063492063 160.75  V 482.24 H 0 V 160.75 Z" fill="#ffa200"></path><path d="M 0 214.32888888888888 L 0 214.33
                L 66.00 241.12
                L 122.47365079365079 214.33 L 122.47365079365079 214.33
                L 211.47 258.33
                L 244.94730158730158 214.33 L 244.94730158730158 214.33
                L 285.77 246.33
                L 367.4209523809524 214.33 L 367.4209523809524 214.33
                L 454.42 241.12
                L 489.89460317460316 214.33 L 489.89460317460316 214.33
                L 559.89 241.12
                L 612.368253968254 214.33 L 612.368253968254 214.33
                L 653.19 241.12
                L 734.8419047619047 214.33 L 734.8419047619047 214.33
                L 777.84 259.33
                L 857.3155555555555 214.33 L 857.3155555555555 214.33
                L 898.14 241.12
                L 979.7892063492063 214.33  V 482.24 H 0 V 214.33 Z" fill="#ff8d00"></path><path d="M 0 267.9111111111111 L 0 267.91
                L 51.00 297.91
                L 122.47365079365079 267.91 L 122.47365079365079 267.91
                L 163.30 317.91
                L 244.94730158730158 267.91 L 244.94730158730158 267.91
                L 326.95 312.91
                L 367.4209523809524 267.91 L 367.4209523809524 267.91
                L 408.25 312.91
                L 489.89460317460316 267.91 L 489.89460317460316 267.91
                L 536.89 311.91
                L 612.368253968254 267.91 L 612.368253968254 267.91
                L 674.37 296.91
                L 734.8419047619047 267.91 L 734.8419047619047 267.91
                L 775.67 306.91
                L 857.3155555555555 267.91 L 857.3155555555555 267.91
                L 898.14 294.70
                L 979.7892063492063 267.91  V 482.24 H 0 V 267.91 Z" fill="#ff7800"></path><path d="M 0 321.49333333333334 L 0 321.49
                L 40.82 365.49
                L 122.47365079365079 321.49 L 122.47365079365079 321.49
                L 163.30 348.28
                L 244.94730158730158 321.49 L 244.94730158730158 321.49
                L 296.95 348.28
                L 367.4209523809524 321.49 L 367.4209523809524 321.49
                L 408.25 348.28
                L 489.89460317460316 321.49 L 489.89460317460316 321.49
                L 530.72 348.28
                L 612.368253968254 321.49 L 612.368253968254 321.49
                L 653.19 352.49
                L 734.8419047619047 321.49 L 734.8419047619047 321.49
                L 775.67 348.28
                L 857.3155555555555 321.49 L 857.3155555555555 321.49
                L 898.14 348.28
                L 979.7892063492063 321.49  V 482.24 H 0 V 321.49 Z" fill="#ff6300"></path><path d="M 0 375.0755555555555 L 0 375.08
                L 40.82 401.87
                L 122.47365079365079 375.08 L 122.47365079365079 375.08
                L 163.30 401.87
                L 244.94730158730158 375.08 L 244.94730158730158 375.08
                L 285.77 422.08
                L 367.4209523809524 375.08 L 367.4209523809524 375.08
                L 408.25 415.08
                L 489.89460317460316 375.08 L 489.89460317460316 375.08
                L 559.89 401.87
                L 612.368253968254 375.08 L 612.368253968254 375.08
                L 653.19 401.87
                L 734.8419047619047 375.08 L 734.8419047619047 375.08
                L 779.84 404.08
                L 857.3155555555555 375.08 L 857.3155555555555 375.08
                L 898.14 401.87
                L 979.7892063492063 375.08  V 482.24 H 0 V 375.08 Z" fill="#ff4e00"></path><path d="M 0 428.65777777777777 L 0 428.66
                L 53.00 455.45
                L 122.47365079365079 428.66 L 122.47365079365079 428.66
                L 212.47 467.66
                L 244.94730158730158 428.66 L 244.94730158730158 428.66
                L 310.95 455.66
                L 367.4209523809524 428.66 L 367.4209523809524 428.66
                L 412.42 461.66
                L 489.89460317460316 428.66 L 489.89460317460316 428.66
                L 530.72 455.45
                L 612.368253968254 428.66 L 612.368253968254 428.66
                L 691.37 476.66
                L 734.8419047619047 428.66 L 734.8419047619047 428.66
                L 777.84 455.66
                L 857.3155555555555 428.66 L 857.3155555555555 428.66
                L 898.14 455.45
                L 979.7892063492063 428.66  V 482.24 H 0 V 428.66 Z" fill="#ff3900"></path></svg>
